# xmcd
# 
# Track frame offsets:
#     150
#     14240
#     31687
#     51021
#     62202
#     89838
#     104674
#     117282
#     142721
#     159692
# 
# Disc length: 2389
# 
# Revision: 1
# Processed by: cddbd v1.5.2PL0 Copyright (c) Steve Scherf et al.
# Submitted via: fre:ac v1.0.17
# 
DISCID=8a09530a
DTITLE=John Lennon - Imagine
DYEAR=1971
DGENRE=
TTITLE0=Imagine
TTITLE1=Crippled Inside
TTITLE2=Jealous Guy
TTITLE3=It's So Hard
TTITLE4=I Don't Wanna Be A Soldier Mama I Don't Wanna Die
TTITLE5=Gimme Some Truth
TTITLE6=Oh My Love
TTITLE7=How Do You Sleep?
TTITLE8=How?
TTITLE9=Oh Yoko!
EXTD=
EXTT0=
EXTT1=
EXTT2=
EXTT3=
EXTT4=
EXTT5=
EXTT6=
EXTT7=
EXTT8=
EXTT9=
PLAYORDER=
